{
	"asset":{
		"generator":"Khronos glTF Blender I/O v3.6.6",
		"version":"2.0"
	},
	"scene":0,
	"scenes":[
		{
			"name":"Scene",
			"nodes":[
				0
			]
		}
	],
	"nodes":[
		{
			"mesh":0,
			"name":"man",
			"rotation":[
				0.7071068286895752,
				0,
				0,
				0.7071068286895752
			],
			"scale":[
				0.3110838532447815,
				0.3110838234424591,
				0.3110838532447815
			],
			"translation":[
				-2.1381616592407227,
				0,
				0
			]
		}
	],
	"meshes":[
		{
			"name":"manmesh",
			"primitives":[
				{
					"attributes":{
						"POSITION":0,
						"TEXCOORD_0":1,
						"NORMAL":2
					},
					"indices":3
				}
			]
		}
	],
	"accessors":[
		{
			"bufferView":0,
			"componentType":5126,
			"count":15162,
			"max":[
				2.3099560737609863,
				5.953474998474121,
				0.5368030071258545
			],
			"min":[
				-2.309941053390503,
				-0.022763000801205635,
				-0.5343279838562012
			],
			"type":"VEC3"
		},
		{
			"bufferView":1,
			"componentType":5126,
			"count":15162,
			"type":"VEC2"
		},
		{
			"bufferView":2,
			"componentType":5126,
			"count":15162,
			"type":"VEC3"
		},
		{
			"bufferView":3,
			"componentType":5123,
			"count":88860,
			"type":"SCALAR"
		}
	],
	"bufferViews":[
		{
			"buffer":0,
			"byteLength":181944,
			"byteOffset":0,
			"target":34962
		},
		{
			"buffer":0,
			"byteLength":121296,
			"byteOffset":181944,
			"target":34962
		},
		{
			"buffer":0,
			"byteLength":181944,
			"byteOffset":303240,
			"target":34962
		},
		{
			"buffer":0,
			"byteLength":177720,
			"byteOffset":485184,
			"target":34963
		}
	],
	"buffers":[
		{
			"byteLength":662904,
			"uri":"data:application/octet-stream;base64,"
		}
	]
}
